{"title":"Apollo.18.2011.R5.x264.Feel-Free","uid":6794102,"size":1162415144,"categoryP":"video","categoryS":"movies","magnet":"?xt=urn:btih:5c0058be469c3638dd346da6e4c593e3091a8c37&amp;dn=Apollo.18.2011.R5.x264.Feel-Free&amp;tr=udp%3A%2F%2Ftracker.openbittorrent.com%3A80&amp;tr=udp%3A%2F%2Fopen.demonii.com%3A1337&amp;tr=udp%3A%2F%2Ftracker.coppersurfer.tk%3A6969&amp;tr=udp%3A%2F%2Fexodus.desync.com%3A6969","seeders":0,"leechers":0,"uploader":"hiest","files":-1,"time":1320382757,"description":"Full Credits To Feel Free :)\n\n ######## ######## ######## ##          ######## ########  ######## ######## \n ##       ##       ##       ##          ##       ##     ## ##       ##       \n ##       ##       ##       ##          ##       ##     ## ##       ##       \n ######   ######   ######   ##          ######   ########  ######   ######   \n ##       ##       ##       ##          ##       ##   ##   ##       ##       \n ##       ##       ##       ##          ##       ##    ##  ##       ##       \n ##       ######## ######## ########    ##       ##     ## ######## ########\n\n Genre:Horror | Sci-Fi | Thriller \n Language:English\n IMDb:\n &lt;a href=&quot; http://www.imdb.com/title/tt1772240/&quot; rel=&quot;nofollow&quot; target=&quot;_NEW&quot;&gt; http://www.imdb.com/title/tt1772240/&lt;/a&gt;\n Source:Russian DVD-5/Mistere Thanks!\n\n Format : MPEG-4\n Format profile : Base Media\n Codec ID : isom\n File size : 1.08 GiB\n Duration : 1h 23mn\n Overall bit rate : 1 861 Kbps\n\n\n Video\n ID : 1\n Format : AVC\n Format/Info : Advanced Video Codec\n Format profile : &lt;a class=&quot;__cf_email__&quot; href=&quot;/cdn-cgi/l/email-protection&quot; data-cfemail=&quot;f6be9f919eb6bac2d8c7&quot;&gt;[email&amp;#160;protected]&lt;/a&gt;&lt;script cf-hash='f9e31' type=&quot;text/javascript&quot;&gt;\n/* &lt;![CDATA[ */!function(){try{var t=&quot;currentScript&quot;in document?document.currentScript:function(){for(var t=document.getElementsByTagName(&quot;script&quot;),e=t.length;e--;)if(t[e].getAttribute(&quot;cf-hash&quot;))return t[e]}();if(t&amp;&amp;t.previousSibling){var e,r,n,i,c=t.previousSibling,a=c.getAttribute(&quot;data-cfemail&quot;);if(a){for(e=&quot;&quot;,r=parseInt(a.substr(0,2),16),n=2;a.length-n;n+=2)i=parseInt(a.substr(n,2),16)^r,e+=String.fromCharCode(i);e=document.createTextNode(e),c.parentNode.replaceChild(e,c)}}}catch(u){}}();/* ]]&gt; */&lt;/script&gt;\n Format settings, CABAC : Yes\n Format settings, ReFrames : 3 frames\n Codec ID : avc1\n Codec ID/Info : Advanced Video Coding\n Duration : 1h 23mn\n Bit rate mode : Variable\n Bit rate : 1 500 Kbps\n Maximum bit rate : 8 103 Kbps\n Width : 720 pixels\n Height : 384 pixels\n Display aspect ratio : 1.875\n Frame rate mode : Constant\n Frame rate : 25.000 fps\n Color space : YUV\n Chroma subsampling : 4:2:0\n Bit depth : 8 bits\n Scan type : Progressive\n Bits/(Pixel*Frame) : 0.217\n Stream size : 860 MiB (78%)\n Writing library : x264\n\n\n Audio\n ID : 2\n Format : AAC\n Format/Info : Advanced Audio Codec\n Format version : Version 4\n Format profile : LC\n Format settings, SBR : No\n Codec ID : 40\n Duration : 1h 23mn\n Bit rate mode : Variable\n Bit rate : 412 Kbps\n Maximum bit rate : 550 Kbps\n Channel(s) : 6 channels\n Channel positions : Front: L C R, Side: L R, LFE\n Sampling rate : 48.0 KHz\n Stream size : 245 MiB (22%)\n\n\n Plot:\n Decades-old found footage from NASA's abandoned Apollo 18 mission, where two \n American astronauts were sent on a secret expedition, reveals the reason the \n U.S. has never returned to the moon\n\n\n Greets:\n\n INK,CRYS,IMAGINE,LKRG,FXG,3Li,FLAWL3SS,TA,iLLUSiON,ViSiON,DTRG \n SAFCuk009,LU,TheFalcon007,MYSTiC,PrisM,Noir,WBZ,LAP,Rx,Kingdom,SAFCuk009+Fabreezy,\n HDLiTE,TWiZTED,ExtraTorrentRG.ELEKTRI4KA,MAGNAT,CM8\n And to all the other p2p grps past and present\n\n\n\n\n\n\n ==================================                                                       \n &lt;a href=&quot; http://thepiratebay.se/user/hiest&quot; rel=&quot;nofollow&quot; target=&quot;_NEW&quot;&gt; http://thepiratebay.se/user/hiest&lt;/a&gt;\n ==================================\n\n\n\n\n\n\n Screenshots:\n  \n &lt;a href=&quot; http://www.pix2links.com/image/g0zSL.png&quot; rel=&quot;nofollow&quot; target=&quot;_NEW&quot;&gt; http://www.pix2links.com/image/g0zSL.png&lt;/a&gt;\n\n &lt;a href=&quot; http://www.pix2links.com/image/ScsOf.png&quot; rel=&quot;nofollow&quot; target=&quot;_NEW&quot;&gt; http://www.pix2links.com/image/ScsOf.png&lt;/a&gt;\n\n &lt;a href=&quot; http://www.pix2links.com/image/kvgSX.png&quot; rel=&quot;nofollow&quot; target=&quot;_NEW&quot;&gt; http://www.pix2links.com/image/kvgSX.png&lt;/a&gt;\n\n &lt;a href=&quot; http://www.pix2links.com/image/sXEuS.png&quot; rel=&quot;nofollow&quot; target=&quot;_NEW&quot;&gt; http://www.pix2links.com/image/sXEuS.png&lt;/a&gt;\n\n &lt;a href=&quot; http://www.pix2links.com/image/W9axH.png&quot; rel=&quot;nofollow&quot; target=&quot;_NEW&quot;&gt; http://www.pix2links.com/image/W9axH.png&lt;/a&gt;\n\n Full Credits To Feel Free :)\n\n ######## ######## ######## ##          ######## ########  ######## ######## \n ##       ##       ##       ##          ##       ##     ## ##       ##       \n ##       ##       ##       ##          ##       ##     ## ##       ##       \n ######   ######   ######   ##          ######   ########  ######   ######   \n ##       ##       ##       ##          ##       ##   ##   ##       ##       \n ##       ##       ##       ##          ##       ##    ##  ##       ##       \n ##       ######## ######## ########    ##       ##     ## ######## ########","torrent":{"xt":"urn:btih:5c0058be469c3638dd346da6e4c593e3091a8c37","amp;dn":"Apollo.18.2011.R5.x264.Feel-Free","amp;tr":["udp%3A%2F%2Ftracker.openbittorrent.com%3A80","udp%3A%2F%2Fopen.demonii.com%3A1337","udp%3A%2F%2Ftracker.coppersurfer.tk%3A6969","udp%3A%2F%2Fexodus.desync.com%3A6969"],"infoHash":"5c0058be469c3638dd346da6e4c593e3091a8c37","infoHashBuffer":{"type":"Buffer","data":[92,0,88,190,70,156,54,56,221,52,109,166,228,197,147,227,9,26,140,55]},"announce":[],"urlList":[]}}